<svg xmlns="http://www.w3.org/2000/svg" viewBox="0 0 1200 760">
  <defs>
    <linearGradient id="bg5" x1="0" x2="1" y1="0" y2="1">
      <stop offset="0%" stop-color="#081828"/>
      <stop offset="100%" stop-color="#1d3a57"/>
    </linearGradient>
  </defs>
  <rect width="1200" height="760" fill="url(#bg5)"/>
  <rect x="120" y="180" width="960" height="420" rx="30" fill="#092033" stroke="#63ffc8" stroke-width="4"/>
  <rect x="210" y="260" width="340" height="250" rx="20" fill="#133a48"/>
  <rect x="650" y="260" width="340" height="250" rx="20" fill="#133a48"/>
  <circle cx="380" cy="385" r="80" fill="#1d5d4f"/>
  <path d="M380 450c80-40 95-138 10-165-72 33-87 130-10 165z" fill="#65ffc9"/>
  <rect x="730" y="315" width="180" height="140" rx="16" fill="#214e66"/>
  <rect x="750" y="340" width="140" height="16" rx="8" fill="#7cf2ff"/>
  <rect x="750" y="372" width="120" height="16" rx="8" fill="#8fffd9"/>
  <rect x="750" y="404" width="100" height="16" rx="8" fill="#8fffd9"/>
  <text x="150" y="235" fill="#ddf9ef" font-size="42" font-family="Arial, sans-serif" font-weight="700">Grønn teknologi og data</text>
</svg>
